<?xml version="1.0" standalone="no"?><!DOCTYPE svg PUBLIC "-//W3C//DTD SVG 1.1//EN" "http://www.w3.org/Graphics/SVG/1.1/DTD/svg11.dtd"><svg t="1586957357402" class="icon" viewBox="0 0 1024 1024" version="1.1" xmlns="http://www.w3.org/2000/svg" p-id="3853" xmlns:xlink="http://www.w3.org/1999/xlink" width="200" height="200"><defs><style type="text/css"></style></defs><path d="M923.357329 731.636165c0 130.292579-184.163858 280.326457-411.357329 280.326457s-411.357329-150.025854-411.357329-280.326457c0-130.308629 184.163858-235.948657 411.357329-235.948658s411.357329 105.640029 411.357329 235.948658z" fill="#FFECD2" p-id="3854"></path><path d="M923.357329 731.636165c0 130.292579-184.163858 234.857269-411.357329 234.857268s-411.357329-104.556665-411.357329-234.857268c0-130.308629 184.163858-235.948657 411.357329-235.948658s411.357329 105.640029 411.357329 235.948658z" fill="#EFC99A" p-id="3855"></path><path d="M512 1024c-238.444407 0-423.394707-157.160006-423.394707-292.363835 0-136.744613 189.933774-247.986035 423.394707-247.986036s423.394707 111.241422 423.394707 247.986036c0 135.203829-184.9503 292.363835-423.394707 292.363835z m0-516.275115c-220.187717 0-399.319951 100.447906-399.319951 223.91128 0 121.521343 178.121094 268.28908 399.319951 268.289079s399.319951-146.767737 399.319951-268.289079c0-123.471398-179.140258-223.91128-399.319951-223.91128z" fill="#33363A" p-id="3856"></path><path d="M906.898221 638.900205c0 165.923218-176.796982 300.460978-394.898221 300.460978s-394.898221-134.545786-394.898221-300.460978c0-165.955317 176.796982-364.804776 394.898221-364.804776s394.898221 198.849459 394.898221 364.804776z" fill="#E5B076" p-id="3857"></path><path d="M906.898221 638.900205c0 165.923218-176.796982 300.460978-394.898221 300.460978s-394.898221-134.545786-394.898221-300.460978c0-165.955317 176.796982-280.294358 394.898221-280.294358s394.898221 114.339041 394.898221 280.294358z" fill="#D3964C" p-id="3858"></path><path d="M596.085097 670.654808c0 11.178712-37.644893 13.184941-84.085097 13.184941s-84.093122-2.00623-84.093122-13.184941c0-11.194761 37.644893-40.421515 84.093122-40.421515 46.440204-0.008025 84.085097 29.226754 84.085097 40.421515z" fill="#E5B076" p-id="3859"></path><path d="M906.898221 638.900205c0 165.923218-176.796982 300.460978-394.898221 300.460978s-394.898221-134.545786-394.898221-300.460978c0-165.971367 50.25204 147.177008 394.898221 147.177008s394.898221-313.148375 394.898221-147.177008z" fill="#C4833D" p-id="3860"></path><path d="M512 951.398561c-224.38475 0-406.935599-140.187303-406.935599-312.498356 0-170.690019 181.515634-376.842154 406.935599-376.842154s406.935599 206.152135 406.935599 376.842154c0 172.311053-182.550849 312.498356-406.935599 312.498356z m0-665.265754c-212.082549 0-382.860843 192.983243-382.860843 352.767398 0 159.037837 171.749308 288.4236 382.860843 288.4236s382.860843-129.385763 382.860843-288.4236c0-159.79218-170.778293-352.767398-382.860843-352.767398z" fill="#33363A" p-id="3861"></path><path d="M169.416224 273.116389c-0.99509 98.883047 33.841082 178.97976 88.346329 222.860015 55.636761-67.048195 92.24644-162.159531 93.24153-261.058628 1.003115-98.891072-33.833057-178.987785-88.34633-222.860015-55.620711 67.04017-92.238415 162.159531-93.241529 261.058628z" fill="#D3964C" p-id="3862"></path><path d="M262.657753 12.057761C207.037042 79.097931 170.419339 174.217292 169.416224 273.116389c-0.99509 98.883047 33.841082 178.97976 88.346329 222.860015l4.8952-483.918643z" fill="#C4833D" p-id="3863"></path><path d="M211.868043 455.073394c-4.036534 0-7.984794-2.038329-10.255846-5.729792-29.61195-48.149512-44.907445-109.130868-44.225326-176.355612 0.987065-98.361428 35.983735-196.27346 96.010126-268.626126A12.037378 12.037378 0 0 1 270.209202 2.668606c60.018366 48.301985 93.851423 132.988951 92.840283 232.369544-0.601869 58.68623-13.546063 118.447799-37.436245 172.832673a12.045403 12.045403 0 0 1-22.044451-9.686077c22.590146-51.431703 34.836172-107.935156 35.397916-163.395368 0.874716-86.645046-26.217409-160.698995-74.720018-205.470017-51.865049 67.10437-81.902319 155.266126-82.793085 243.917402-0.633969 62.682639 13.417664 119.210166 40.646213 163.491667a12.029353 12.029353 0 0 1-10.231772 18.344964z" fill="#33363A" p-id="3864"></path><path d="M216.032976 321.899869c-0.47347 46.753176 16.001688 84.590667 41.761677 105.343107 26.289633-31.690404 43.599383-76.645998 44.064828-123.383124 0.481495-46.753176-15.985638-84.606717-41.753652-105.343106-26.289633 31.690404-43.599383 76.637973-44.072853 123.383123z" fill="#66310E" p-id="3865"></path><path d="M260.105829 198.516746c-26.289633 31.690404-43.607408 76.645998-44.072853 123.383123-0.47347 46.753176 16.001688 84.590667 41.761677 105.343107l2.311176-228.72623z" fill="#89410B" p-id="3866"></path><path d="M257.786628 439.280354a11.957129 11.957129 0 0 1-7.543424-2.664273c-29.884797-24.074756-46.737126-65.932731-46.247606-114.836585 0.48952-47.916789 17.558522-95.649005 46.849475-130.950623a12.029353 12.029353 0 0 1 16.812205-1.693257c29.892822 24.058706 46.745151 65.916682 46.247606 114.852635-0.48952 47.916789-17.558522 95.649005-46.84145 130.942597a12.013303 12.013303 0 0 1-9.276806 4.349506zM216.032976 321.899869l12.037378 0.120374c-0.361121 35.413966 10.055223 67.04017 28.279813 87.311115 21.009237-29.820598 33.086739-67.59389 33.471936-105.583855 0.361121-35.438041-10.047198-67.05622-28.271788-87.311114-21.017262 29.820598-33.094764 67.601915-33.479961 105.583854l-12.037378-0.120374z" fill="#33363A" p-id="3867"></path><path d="M854.575751 273.116389c0.99509 98.883047-33.841082 178.97976-88.346329 222.860015-55.636761-67.048195-92.24644-162.159531-93.241529-261.058628-1.003115-98.891072 33.841082-178.987785 88.354354-222.860015 55.620711 67.04017 92.238415 162.159531 93.233504 261.058628z" fill="#D3964C" p-id="3868"></path><path d="M761.342247 12.057761c55.620711 67.032145 92.238415 162.159531 93.233504 261.058628 0.99509 98.883047-33.841082 178.97976-88.346329 222.860015L761.342247 12.057761z" fill="#C4833D" p-id="3869"></path><path d="M812.131957 455.073394a12.029353 12.029353 0 0 1-10.239797-18.344964c27.236574-44.281501 41.288206-100.817053 40.646213-163.483642-0.890766-88.659301-30.928036-176.813032-82.793085-243.925427-48.502608 44.771021-75.594733 118.832995-74.720017 205.470017 0.561744 55.460213 12.80777 111.963665 35.397916 163.395368a12.037378 12.037378 0 0 1-22.044452 9.686077c-23.898208-54.384874-36.834376-114.154467-37.436245-172.832673C659.939375 135.673608 693.780457 50.978617 753.798823 2.676631a12.037378 12.037378 0 0 1 16.812205 1.693258c60.018366 72.352666 95.023061 170.264698 96.010126 268.634151 0.682118 67.216718-14.605352 128.198075-44.225326 176.347587a12.061453 12.061453 0 0 1-10.263871 5.721767z" fill="#33363A" p-id="3870"></path><path d="M807.967024 321.899869c0.47347 46.753176-16.001688 84.590667-41.761677 105.343107-26.289633-31.690404-43.599383-76.645998-44.064828-123.383124-0.481495-46.753176 15.985638-84.606717 41.753652-105.343106 26.289633 31.690404 43.599383 76.637973 44.072853 123.383123z" fill="#66310E" p-id="3871"></path><path d="M763.894171 198.516746c26.289633 31.690404 43.607408 76.645998 44.072853 123.383123 0.47347 46.753176-16.001688 84.590667-41.761677 105.343107l-2.311176-228.72623z" fill="#89410B" p-id="3872"></path><path d="M766.213372 439.280354c-3.466765 0-6.893405-1.48461-9.268781-4.349506-29.282928-35.293592-46.35193-83.033833-46.84145-130.950622-0.50557-48.927929 16.354784-90.785904 46.247606-114.84461a12.029353 12.029353 0 0 1 16.812205 1.693257c29.290953 35.301617 46.359955 83.041858 46.849475 130.950623 0.497545 48.903854-16.362809 90.76183-46.247606 114.836585a12.037378 12.037378 0 0 1-7.551449 2.664273z m-3.763687-222.85199c-18.22459 20.24687-28.63291 51.873074-28.271788 87.30309 0.385196 37.99799 12.462699 75.771282 33.471936 105.591879 18.22459-20.26292 28.640935-51.897149 28.279813-87.311115-0.385196-37.98194-12.462699-75.763257-33.479961-105.583854z" fill="#33363A" p-id="3873"></path><path d="M589.336141 758.896813a12.037378 12.037378 0 0 0-12.037378 12.037378 20.808614 20.808614 0 0 1-20.784539 20.784539H544.821917a20.808614 20.808614 0 0 1-20.784539-20.784539V759.257935c0-0.585819-0.088274-1.147563-0.168523-1.709308l24.965521-12.494798a12.053428 12.053428 0 0 0-5.38472-22.806819h-62.891287a12.053428 12.053428 0 0 0-5.384721 22.806819l24.957497 12.494798c-0.080249 0.561744-0.168523 1.123489-0.168523 1.709308v11.676256a20.808614 20.808614 0 0 1-20.784539 20.784539h-11.692307a20.808614 20.808614 0 0 1-20.784539-20.784539 12.037378 12.037378 0 0 0-24.074756 0 44.91547 44.91547 0 0 0 44.859295 44.859295h11.692307a44.714847 44.714847 0 0 0 32.821917-14.380654 44.698797 44.698797 0 0 0 32.821917 14.380654h11.692307a44.91547 44.91547 0 0 0 44.859295-44.859295 12.037378 12.037378 0 0 0-12.037378-12.037378z" fill="#33363A" p-id="3874"></path><path d="M382.301265 677.548213a64.600595 64.600595 0 0 1-64.62467 64.60862 64.600595 64.600595 0 1 1 0-129.21724 64.616645 64.616645 0 0 1 64.62467 64.60862z" fill="#89410B" p-id="3875"></path><path d="M285.552846 656.547001m-26.321733 0a26.321733 26.321733 0 1 0 52.643466 0 26.321733 26.321733 0 1 0-52.643466 0Z" fill="#FFFFFF" p-id="3876"></path><path d="M317.676595 600.902215c-26.024811 0-49.032253 13.064568-62.891287 32.958341a39.129503 39.129503 0 0 0-2.311176 3.595164 76.108328 76.108328 0 0 0-11.443534 40.092493c0 42.267246 34.378751 76.645998 76.645997 76.645998 42.275271 0 76.662048-34.378751 76.662048-76.645998s-34.386776-76.645998-76.662048-76.645998z m0 129.21724a52.627416 52.627416 0 0 1-48.518658-32.372522c5.456945-0.144449 12.109602-1.613009 19.556727-3.153793 2.864896-0.240748 5.625468-0.778417 8.281716-1.621033 6.492159-1.155588 13.441739-2.070429 20.680215-2.070429 19.364129 0 36.689928 6.524259 48.534708 6.845255a52.651491 52.651491 0 0 1-48.534708 32.372522z" fill="#33363A" p-id="3877"></path><path d="M285.544821 656.555026m-14.284355 0a14.284355 14.284355 0 1 0 28.56871 0 14.284355 14.284355 0 1 0-28.56871 0Z" fill="#FFFFFF" p-id="3878"></path><path d="M770.932024 677.548213a64.600595 64.600595 0 0 1-64.608619 64.60862 64.600595 64.600595 0 1 1 0-129.21724 64.616645 64.616645 0 0 1 64.608619 64.60862z" fill="#89410B" p-id="3879"></path><path d="M674.183605 656.547001m-26.321733 0a26.321733 26.321733 0 1 0 52.643467 0 26.321733 26.321733 0 1 0-52.643467 0Z" fill="#FFFFFF" p-id="3880"></path><path d="M706.323405 600.902215c-26.016786 0-49.016203 13.048518-62.875238 32.918216a39.627048 39.627048 0 0 0-2.359326 3.667388 76.076229 76.076229 0 0 0-11.427484 40.060394c0 42.267246 34.386776 76.645998 76.662048 76.645998 42.267246 0 76.645998-34.378751 76.645997-76.645998s-34.386776-76.645998-76.645997-76.645998z m0 129.21724a52.659516 52.659516 0 0 1-48.534708-32.372522c5.529169-0.144449 12.246026-1.604984 19.821549-3.177868 2.688348-0.240748 5.272372-0.746317 7.768121-1.516709 6.580433-1.187688 13.602237-2.150678 20.945038-2.150678 19.356104 0 36.681903 6.524259 48.518658 6.845255a52.643466 52.643466 0 0 1-48.518658 32.372522z" fill="#33363A" p-id="3881"></path><path d="M674.175581 656.555026m-14.284356 0a14.284355 14.284355 0 1 0 28.568711 0 14.284355 14.284355 0 1 0-28.568711 0Z" fill="#FFFFFF" p-id="3882"></path><path d="M676.727505 354.641537L622.904375 234.845552l-51.455778 23.135841-59.448597-59.464647-59.456622 59.464647-51.447753-23.135841-53.82313 119.795985 119.763886 53.82313 2.672298-5.95449 42.291321 42.283296 42.283296-42.275271 2.672298 5.946465z" fill="#E5B076" p-id="3883"></path><path d="M571.448597 358.292875L512 298.844278l-59.456622 59.448597-51.447753-23.11979-16.322685 36.312757 82.263441 36.978825 2.672298-5.95449 42.291321 42.283296 42.283296-42.275271 2.672298 5.946465 82.263441-36.978825-16.31466-36.312757z" fill="#D3964C" p-id="3884"></path><path d="M676.73553 366.678915a12.037378 12.037378 0 0 1-10.986114-7.102053l-48.887804-108.817896-40.47769 18.200515a12.045403 12.045403 0 0 1-13.449763-2.471675l-50.942184-50.958233-50.950208 50.958233a12.077503 12.077503 0 0 1-13.449764 2.471675l-40.469665-18.200515-48.887804 108.817896a12.037378 12.037378 0 0 1-21.956177-9.87065l53.823129-119.795985a12.053428 12.053428 0 0 1 15.913414-6.042764l43.87223 19.72525 53.590406-53.590406a12.069478 12.069478 0 0 1 17.028878 0l53.582381 53.590406 43.880255-19.72525a11.933054 11.933054 0 0 1 9.204582-0.272847c2.98527 1.139538 5.40077 3.41059 6.708832 6.315611l53.823129 119.795985a12.037378 12.037378 0 0 1-10.970063 16.972703z" fill="#33363A" p-id="3885"></path></svg>